<svg
    id="visual"
    viewBox="0 400 900 200"
    xmlns="http://www.w3.org/2000/svg"
    xmlnsXlink="http://www.w3.org/1999/xlink"
    version="1.1"
    width="100%"
    height="200px"
    preserveAspectRatio="none"
>
    <path
        d="M0 423L15 428.2C30 433.3 60 443.7 90 458.8C120 474 150 494 180 488.3C210 482.7 240 451.3 270 443.7C300 436 330 452 360 468.8C390 485.7 420 503.3 450 499.8C480 496.3 510 471.7 540 469.2C570 466.7 600 486.3 630 497.7C660 509 690 512 720 516C750 520 780 525 810 514C840 503 870 476 885 462.5L900 449"
        fill="none"
        stroke-linecap="round"
        stroke-linejoin="miter"
        stroke="#0066FF"
        stroke-width="5"
    ></path>
</svg>