<svg width="611" height="187" viewBox="0 0 611 187" fill="none" xmlns="http://www.w3.org/2000/svg">
<path d="M610 93C603.876 64.2 572.546 33 529 22V163C572.546 152 603.876 121.8 610 93Z" fill="#FF5757" stroke="black"/>
<path d="M209.503 165.697C258.503 212.739 529 163.297 529 163.297V21.6938C529 21.6938 260.503 -24.8673 209.503 21.6938C158.504 68.2549 160.504 118.656 209.503 165.697Z" fill="#ADADAD" stroke="black"/>
<circle cx="423" cy="92" r="49.5" fill="white" stroke="white"/>
<circle cx="423" cy="92" r="39.5" fill="#6DADB8" stroke="white"/>
<g filter="url(#filter0_i_1_5)">
<path d="M0.000244141 93C156.711 -32.4208 201.963 -4.37406 205 25.3269L205 160.673C201.963 190.374 156.711 218.421 0.000244141 93Z" fill="#FFD079"/>
</g>
<defs>
<filter id="filter0_i_1_5" x="0.000244141" y="0" width="205" height="206" filterUnits="userSpaceOnUse" color-interpolation-filters="sRGB">
<feFlood flood-opacity="0" result="BackgroundImageFix"/>
<feBlend mode="normal" in="SourceGraphic" in2="BackgroundImageFix" result="shape"/>
<feColorMatrix in="SourceAlpha" type="matrix" values="0 0 0 0 0 0 0 0 0 0 0 0 0 0 0 0 0 0 127 0" result="hardAlpha"/>
<feOffset dy="45"/>
<feGaussianBlur stdDeviation="10"/>
<feComposite in2="hardAlpha" operator="arithmetic" k2="-1" k3="1"/>
<feColorMatrix type="matrix" values="0 0 0 0 1 0 0 0 0 0 0 0 0 0 0 0 0 0 0.25 0"/>
<feBlend mode="normal" in2="shape" result="effect1_innerShadow_1_5"/>
</filter>
</defs>
</svg>
